<?xml version="1.0" standalone="no"?>
<!DOCTYPE svg PUBLIC "-//W3C//DTD SVG 20010904//EN"
 "http://www.w3.org/TR/2001/REC-SVG-20010904/DTD/svg10.dtd">
<svg version="1.0" xmlns="http://www.w3.org/2000/svg"
 width="300.000000pt" height="302.000000pt" viewBox="0 0 300.000000 302.000000"
 preserveAspectRatio="xMidYMid meet">
<metadata>
Created by potrace 1.10, written by Peter Selinger 2001-2011
</metadata>
<g transform="translate(0.000000,302.000000) scale(0.100000,-0.100000)"
fill="#000000" stroke="none">
<path d="M980 2400 c0 -20 7 -20 280 -20 273 0 280 0 280 20 0 20 -7 20 -280
20 -273 0 -280 0 -280 -20z"/>
<path d="M1600 1496 l0 -926 59 0 c54 0 61 3 107 42 65 58 112 110 157 177
113 167 204 427 225 641 6 64 10 75 27 78 55 10 108 95 132 210 23 115 23 438
0 515 -22 73 -74 126 -153 158 -55 22 -75 24 -306 27 l-248 4 0 -926z m310
876 c0 -4 -17 -15 -38 -24 -99 -43 -170 -167 -179 -314 -9 -129 13 -150 167
-165 104 -10 159 -26 193 -57 30 -26 55 -84 63 -140 8 -63 35 -96 73 -88 23 6
20 1 -22 -36 -41 -37 -48 -49 -51 -88 -6 -69 -54 -276 -86 -367 -35 -99 -79
-189 -131 -265 -22 -32 -39 -61 -39 -64 0 -16 -142 -144 -166 -150 -56 -14
-54 -45 -54 891 0 474 3 865 7 868 9 10 263 9 263 -1z m211 -69 c89 -35 109
-97 109 -329 0 -178 -13 -282 -43 -339 l-21 -40 -7 62 c-8 68 -39 146 -70 180
-36 37 -112 63 -221 73 -59 6 -111 16 -125 25 -21 14 -23 21 -18 68 11 93 24
147 50 196 27 54 84 106 130 121 40 13 168 3 216 -17z m118 -28 c13 -20 21
-38 18 -41 -3 -3 -13 8 -23 25 -10 16 -22 27 -27 24 -6 -3 -7 -1 -3 5 3 5 0
13 -6 15 -9 4 -8 6 2 6 8 1 26 -15 39 -34z"/>
<path d="M863 2326 c-83 -21 -141 -68 -169 -141 -25 -66 -16 -188 16 -237 51
-76 165 -121 248 -99 53 15 119 73 130 115 l8 31 217 1 c119 1 217 4 217 8 0
37 8 36 -215 36 -210 0 -215 0 -215 20 0 62 -66 120 -136 120 -115 0 -153
-152 -46 -184 19 -6 22 -4 22 18 0 16 -6 26 -15 26 -19 0 -31 48 -18 69 6 9
24 20 42 25 42 12 81 -16 99 -72 12 -37 11 -45 -7 -86 -25 -57 -69 -86 -131
-86 -121 1 -203 97 -186 219 10 72 44 121 105 153 l53 28 329 0 329 0 0 25 0
25 -312 -1 c-215 0 -329 -5 -365 -13z"/>
<path d="M1110 1258 c0 -359 -3 -663 -6 -675 -5 -19 -2 -23 15 -23 l21 0 -2
672 c-2 526 -6 672 -15 676 -10 3 -13 -131 -13 -650z"/>
<path d="M1197 1904 c-4 -4 -7 -308 -7 -676 l0 -668 30 0 30 0 -2 673 c-3 668
-3 672 -23 675 -12 2 -24 0 -28 -4z"/>
<path d="M1322 1898 c-9 -9 -12 -160 -12 -675 l0 -663 40 0 40 0 -2 672 -3
673 -25 3 c-14 2 -31 -3 -38 -10z"/>
<path d="M1462 1898 c-9 -9 -12 -160 -12 -675 l0 -663 40 0 40 0 -2 672 -3
673 -25 3 c-14 2 -31 -3 -38 -10z"/>
</g>
</svg>
